<svg width="173" height="23" xmlns="http://www.w3.org/2000/svg" xmlns:xlink="http://www.w3.org/1999/xlink"><defs><linearGradient x1="52.701%" y1="100%" x2="52.701%" y2="0%" id="c"><stop stop-color="#DB5858" stop-opacity=".42" offset="0%"/><stop stop-color="#DB5858" stop-opacity="0" offset="100%"/></linearGradient><filter x="-.2%" y="-1.8%" width="100.9%" height="107.3%" filterUnits="objectBoundingBox" id="a"><feOffset dx=".8" dy=".8" in="SourceAlpha" result="shadowOffsetOuter1"/><feColorMatrix values="0 0 0 0 1 0 0 0 0 1 0 0 0 0 1 0 0 0 0.72 0" in="shadowOffsetOuter1"/></filter><path d="M6.087 16.944c1.294 0 2.334-.15 3.12-.45.785-.299 1.383-.681 1.792-1.147.41-.466.683-.96.822-1.48a5.647 5.647 0 00.208-1.448c0-.887-.191-1.632-.575-2.234-.384-.603-.954-1.116-1.71-1.541-.757-.425-1.69-.815-2.802-1.17a23.174 23.174 0 01-1.655-.593c-.46-.189-.815-.416-1.064-.682-.248-.267-.372-.618-.372-1.054 0-.547.222-.957.668-1.23.446-.274 1.078-.411 1.897-.411.782 0 1.551.102 2.308.305.756.203 1.566.5 2.428.893l.285-2.906c-.599-.244-1.323-.47-2.17-.682C8.419.904 7.527.798 6.59.798c-1.235 0-2.267.19-3.097.571-.83.381-1.452.906-1.87 1.575C1.209 3.614 1 4.376 1 5.234c0 .872.19 1.59.57 2.151.38.562.895 1.026 1.546 1.392.65.366 1.385.693 2.204.981.818.288 1.49.545 2.017.77.526.226.917.481 1.173.766.256.284.384.66.384 1.125 0 .607-.227 1.057-.68 1.353-.453.296-1.052.444-1.798.444a7.98 7.98 0 01-1.776-.2 12.363 12.363 0 01-1.71-.521 19.781 19.781 0 01-1.601-.699L1 15.813c.329.162.775.33 1.338.504.562.174 1.173.322 1.83.444.658.122 1.298.183 1.92.183zm12.43-.09l.242-2.261h-.746c-.512 0-.884-.032-1.118-.095-.234-.062-.384-.218-.45-.465-.065-.248-.098-.653-.098-1.214V7.806h2.412V5.544h-2.412V2.817l-2.72.288v2.44h-1.315l-.241 2.261h1.557v6.144c0 .48.102.942.307 1.386.204.443.522.807.953 1.092.432.285.99.427 1.678.427h1.951zm6.62 0c.782 0 1.484-.084 2.105-.254.621-.17 1.14-.366 1.557-.588l-.132-2.329c-.46.274-.964.494-1.513.66a6.09 6.09 0 01-1.776.25c-.54 0-1.047-.1-1.518-.3-.472-.2-.87-.512-1.195-.937-.325-.425-.54-.981-.642-1.668h7.083c.058-.267.102-.524.131-.771.03-.248.044-.494.044-.738 0-.88-.175-1.683-.526-2.411a4.136 4.136 0 00-1.579-1.747c-.701-.436-1.578-.654-2.631-.654-1.148 0-2.12.26-2.916.782a5.04 5.04 0 00-1.815 2.068 6.38 6.38 0 00-.62 2.805c0 1.05.22 2.016.659 2.9.438.883 1.098 1.593 1.979 2.129.88.536 1.982.804 3.305.804zm1.381-7.03H22.09c.132-.635.399-1.16.8-1.574.403-.414.954-.621 1.656-.621.49 0 .879.115 1.168.344.288.229.495.512.62.848.123.336.185.67.185 1.004zM33.182 22v-6.043l.115.083c.203.141.405.263.605.365l.2.095c.534.237 1.229.355 2.084.355 1.074 0 1.977-.263 2.708-.787.73-.525 1.285-1.224 1.661-2.096.376-.873.565-1.826.565-2.861 0-1.035-.189-1.989-.565-2.861-.376-.872-.93-1.57-1.661-2.096-.73-.525-1.634-.787-2.708-.787-.855 0-1.579.157-2.17.471-.34.18-.663.394-.973.642l-.097.082-.29-1.018h-2.193V22h2.719zm2.587-7.407c-.628 0-1.144-.148-1.546-.444-.402-.296-.698-.704-.888-1.225-.19-.521-.285-1.126-.285-1.813 0-.688.095-1.292.285-1.813.19-.521.486-.93.888-1.225.402-.296.918-.444 1.546-.444.812 0 1.442.322 1.892.965.45.643.674 1.482.674 2.517 0 1.027-.225 1.865-.674 2.511-.45.647-1.08.97-1.892.97zm9.251 2.04v-8.03l.07-.082c.104-.111.212-.214.324-.308l.17-.135c.407-.3.927-.449 1.563-.449.746 0 1.283.248 1.612.743.329.495.493 1.26.493 2.295v5.966h2.72v-6.165c0-1.006-.143-1.89-.428-2.656-.285-.765-.731-1.364-1.338-1.796-.607-.433-1.392-.65-2.357-.65-.753 0-1.4.138-1.94.411-.271.137-.532.28-.782.43l-.107.066V0h-2.719v16.633h2.72zm17.869.222l.24-2.262h-.35c-.263 0-.464-.034-.603-.1-.139-.067-.234-.224-.285-.471-.051-.248-.077-.649-.077-1.203V9.825c0-1.072-.16-1.935-.482-2.59-.322-.654-.779-1.129-1.37-1.425-.593-.295-1.298-.443-2.117-.443-.68 0-1.35.081-2.012.244a9.674 9.674 0 00-1.979.732l.242 2.24c.584-.289 1.109-.501 1.573-.638a5.036 5.036 0 011.43-.205c.702 0 1.2.144 1.492.432.292.289.453.75.482 1.386-.41.015-.882.063-1.42.145-.537.08-1.081.208-1.633.382a6.476 6.476 0 00-1.535.71 3.69 3.69 0 00-1.14 1.12c-.289.447-.433.985-.433 1.613 0 .703.142 1.301.427 1.797.285.495.669.874 1.151 1.136a3.295 3.295 0 001.601.394c.658 0 1.292-.113 1.902-.338.61-.226 1.095-.542 1.453-.948.139.258.322.484.548.676.227.192.499.342.817.45.318.106.681.16 1.09.16h.988zm-5.658-2.107c-.511 0-.884-.11-1.118-.327-.234-.218-.35-.553-.35-1.004 0-.436.17-.798.514-1.086.344-.289.772-.507 1.283-.655a6.532 6.532 0 011.535-.255v2.529a2.714 2.714 0 01-.965.604c-.358.13-.658.194-.899.194zm9.449 1.885V8.606l.055-.066c.102-.113.207-.217.315-.313l.167-.138c.394-.307.902-.46 1.524-.46.767 0 1.32.248 1.66.743.34.495.51 1.26.51 2.295v5.966h2.72v-6.187c0-1.501-.34-2.723-1.02-3.665-.68-.943-1.721-1.414-3.125-1.414-.767 0-1.44.144-2.017.432a8.344 8.344 0 00-.806.458l-.117.078-.042-.79h-2.543v11.088h2.719zM78.1 3.86v-2.75h-2.719v2.75h2.72zm0 12.774V5.544h-2.719v11.09h2.72zm7.146.222c.782 0 1.484-.085 2.105-.255.621-.17 1.14-.366 1.557-.588l-.132-2.329c-.46.274-.964.494-1.513.66a6.09 6.09 0 01-1.776.25c-.54 0-1.047-.1-1.518-.3-.472-.2-.87-.512-1.195-.937-.326-.425-.54-.981-.642-1.668h7.083c.058-.267.102-.524.131-.771.03-.248.044-.494.044-.738 0-.88-.175-1.683-.526-2.411a4.136 4.136 0 00-1.579-1.747c-.701-.436-1.578-.654-2.631-.654-1.148 0-2.12.26-2.916.782a5.04 5.04 0 00-1.815 2.068 6.38 6.38 0 00-.62 2.805c0 1.05.22 2.016.659 2.9.438.883 1.098 1.593 1.978 2.129.881.536 1.983.804 3.306.804zm1.381-7.03H82.2c.132-.636.398-1.161.8-1.575.402-.414.954-.621 1.656-.621.49 0 .879.115 1.168.344.288.229.495.512.62.848.123.336.185.67.185 1.004zm11.42 6.808v-6.72h5.13v-2.75h-5.13V3.86h6.644v-2.75H95.24v15.524h2.807zm9.536 0V9.071c.153-.31.42-.573.8-.788.38-.214.8-.321 1.26-.321.154 0 .31.007.467.022.157.015.316.044.477.089l.197-2.706a2.437 2.437 0 00-.482-.044c-.6 0-1.152.155-1.656.465-.504.31-.895.621-1.173.932l-.066-1.176h-2.543v11.09h2.719zm8.615.222c1.191 0 2.207-.263 3.047-.787a5.205 5.205 0 001.925-2.096 6.236 6.236 0 00.663-2.861 6.328 6.328 0 00-.663-2.883 5.225 5.225 0 00-1.925-2.113c-.84-.528-1.856-.792-3.047-.792-1.192 0-2.208.264-3.048.792a5.225 5.225 0 00-1.924 2.113 6.328 6.328 0 00-.664 2.883c0 1.035.221 1.988.664 2.86a5.205 5.205 0 001.924 2.097c.84.524 1.856.787 3.048.787zm0-2.262c-.907 0-1.608-.324-2.105-.97-.497-.647-.746-1.485-.746-2.512 0-1.042.249-1.89.746-2.545.497-.654 1.198-.981 2.105-.981.913 0 1.617.327 2.11.981.493.654.74 1.503.74 2.545 0 1.027-.247 1.865-.74 2.511-.493.647-1.197.97-2.11.97zm12.123 2.262c.782 0 1.484-.085 2.105-.255.621-.17 1.14-.366 1.557-.588l-.132-2.329c-.46.274-.965.494-1.513.66a6.09 6.09 0 01-1.776.25c-.54 0-1.047-.1-1.518-.3-.472-.2-.87-.512-1.195-.937-.326-.425-.54-.981-.642-1.668h7.083c.058-.267.102-.524.131-.771.03-.248.044-.494.044-.738 0-.88-.175-1.683-.526-2.411a4.136 4.136 0 00-1.579-1.747c-.701-.436-1.579-.654-2.631-.654-1.148 0-2.12.26-2.916.782a5.04 5.04 0 00-1.815 2.068 6.38 6.38 0 00-.62 2.805c0 1.05.22 2.016.658 2.9.439.883 1.099 1.593 1.98 2.129.88.536 1.982.804 3.305.804zm1.381-7.03h-4.429c.132-.636.398-1.161.8-1.575.402-.414.954-.621 1.656-.621.49 0 .879.115 1.168.344.288.229.495.512.619.848.124.336.186.67.186 1.004zm6.642 6.808v-8.03l.07-.082c.104-.111.212-.214.324-.308l.17-.135c.406-.3.927-.449 1.563-.449.745 0 1.283.248 1.612.743.328.495.493 1.26.493 2.295v5.966h2.719v-6.165c0-1.006-.143-1.89-.428-2.656-.285-.765-.73-1.364-1.337-1.796-.607-.433-1.393-.65-2.357-.65-.753 0-1.4.138-1.941.411-.27.137-.53.28-.781.43l-.108.066V0h-2.718v16.633h2.719zm11.422 0V8.606l.056-.066c.1-.113.206-.217.315-.313l.166-.138c.394-.307.902-.46 1.524-.46.767 0 1.32.248 1.66.743.34.495.51 1.26.51 2.295v5.966h2.72v-6.187c0-1.501-.34-2.723-1.02-3.665-.68-.943-1.721-1.414-3.125-1.414-.767 0-1.44.144-2.017.432a8.344 8.344 0 00-.806.458l-.117.078-.042-.79h-2.543v11.088h2.719zm13.987.222c.782 0 1.483-.085 2.105-.255.621-.17 1.14-.366 1.557-.588l-.132-2.329c-.46.274-.965.494-1.513.66a6.09 6.09 0 01-1.776.25c-.54 0-1.047-.1-1.519-.3-.471-.2-.87-.512-1.195-.937-.325-.425-.539-.981-.64-1.668h7.082c.058-.267.102-.524.131-.771.03-.248.044-.494.044-.738 0-.88-.175-1.683-.526-2.411a4.136 4.136 0 00-1.579-1.747c-.702-.436-1.579-.654-2.631-.654-1.148 0-2.12.26-2.917.782a5.04 5.04 0 00-1.814 2.068 6.38 6.38 0 00-.62 2.805c0 1.05.22 2.016.658 2.9.439.883 1.098 1.593 1.98 2.129.88.536 1.982.804 3.305.804zm1.381-7.03h-4.43c.132-.636.4-1.161.801-1.575.402-.414.954-.621 1.656-.621.49 0 .879.115 1.167.344.289.229.496.512.62.848.124.336.186.67.186 1.004zm6.664 6.808V9.071c.153-.31.42-.573.8-.788.38-.214.8-.321 1.26-.321.154 0 .31.007.467.022.157.015.316.044.477.089L173 5.367a2.437 2.437 0 00-.482-.044c-.6 0-1.152.155-1.656.465-.504.31-.895.621-1.173.932l-.066-1.176h-2.543v11.09h2.719z" id="b"/></defs><g transform="translate(-1)" fill-rule="nonzero" fill="none"><use fill="#000" filter="url(#a)" xlink:href="#b"/><use fill="#FF8C8C" xlink:href="#b"/><use fill="url(#c)" xlink:href="#b"/></g></svg>