<svg width="190" height="28" xmlns="http://www.w3.org/2000/svg"><g fill-rule="nonzero" fill="none"><path d="M6.364 20.336c1.416 0 2.554-.162 3.414-.486.86-.324 1.514-.738 1.962-1.242.448-.504.748-1.038.9-1.602a6.047 6.047 0 00.228-1.566c0-.96-.21-1.766-.63-2.418-.42-.652-1.044-1.208-1.872-1.668-.828-.46-1.85-.882-3.066-1.266a25.555 25.555 0 01-1.812-.642c-.504-.204-.892-.45-1.164-.738-.272-.288-.408-.668-.408-1.14 0-.592.244-1.036.732-1.332.488-.296 1.18-.444 2.076-.444.856 0 1.698.11 2.526.33.828.22 1.714.542 2.658.966l.312-3.144a17.853 17.853 0 00-2.376-.738 12.233 12.233 0 00-2.928-.342c-1.352 0-2.482.206-3.39.618-.908.412-1.59.98-2.046 1.704-.456.724-.684 1.55-.684 2.478 0 .944.208 1.72.624 2.328.416.608.98 1.11 1.692 1.506.712.396 1.516.75 2.412 1.062.896.312 1.632.59 2.208.834.576.244 1.004.52 1.284.828.28.308.42.714.42 1.218 0 .656-.248 1.144-.744 1.464-.496.32-1.152.48-1.968.48a8.829 8.829 0 01-1.944-.216 13.646 13.646 0 01-1.872-.564 21.78 21.78 0 01-1.752-.756l-.36 3.264c.36.176.848.358 1.464.546.616.188 1.284.348 2.004.48s1.42.198 2.1.198zM19.97 20.24l.263-2.448h-.816c-.56 0-.968-.034-1.224-.102-.256-.068-.42-.236-.492-.504-.072-.268-.108-.706-.108-1.314v-5.424h2.64V8h-2.64V5.048l-2.976.312V8h-1.44l-.264 2.448h1.704v6.648c0 .52.112 1.02.336 1.5.224.48.572.874 1.044 1.182.472.308 1.084.462 1.836.462h2.136zM26.567 7.808c1.152 0 2.112.236 2.88.708a4.495 4.495 0 011.728 1.89c.384.788.576 1.658.576 2.61 0 .264-.016.53-.048.798s-.08.546-.144.834h-7.752l.047.272c.125.62.343 1.132.655 1.534.356.46.792.798 1.308 1.014a4.26 4.26 0 001.662.324c.696 0 1.344-.09 1.944-.27.6-.18 1.152-.418 1.656-.714l.144 2.52-.203.101a8.992 8.992 0 01-1.501.535c-.68.184-1.448.276-2.304.276-1.448 0-2.654-.29-3.618-.87-.964-.58-1.686-1.348-2.166-2.304-.48-.956-.72-2.002-.72-3.138 0-1.096.226-2.108.678-3.036a5.474 5.474 0 011.986-2.238c.872-.564 1.936-.846 3.192-.846zm0 2.448c-.768 0-1.372.224-1.812.672-.44.448-.732 1.016-.876 1.704h4.848c0-.36-.068-.722-.204-1.086a2.071 2.071 0 00-.678-.918c-.316-.248-.742-.372-1.278-.372zM39.308 7.808c1.176 0 2.164.284 2.964.852.8.568 1.406 1.324 1.818 2.268.412.944.618 1.976.618 3.096s-.206 2.152-.618 3.096c-.412.944-1.018 1.7-1.818 2.268-.8.568-1.788.852-2.964.852-.936 0-1.696-.128-2.28-.384l-.22-.103a5.58 5.58 0 01-.662-.395l-.126-.09v7.54l-2.976.502V8h2.4l.318 1.101.106-.088c.34-.27.694-.5 1.064-.695.648-.34 1.44-.51 2.376-.51zm-.456 2.448c-.688 0-1.252.16-1.692.48-.44.32-.764.762-.972 1.326-.208.564-.312 1.218-.312 1.962s.104 1.398.312 1.962c.208.564.532 1.006.972 1.326.44.32 1.004.48 1.692.48.888 0 1.578-.35 2.07-1.05.492-.7.738-1.606.738-2.718 0-1.12-.246-2.028-.738-2.724-.492-.696-1.182-1.044-2.07-1.044zM48.977 20v-8.691l.077-.088a4.03 4.03 0 01.354-.333l.187-.146c.444-.324 1.014-.486 1.71-.486.816 0 1.404.268 1.764.804.36.536.54 1.364.54 2.484V20h2.976v-6.672c0-1.088-.156-2.046-.468-2.874-.312-.828-.8-1.476-1.464-1.944-.664-.468-1.524-.702-2.58-.702-.824 0-1.532.148-2.124.444-.296.148-.58.303-.855.465l-.117.072V.5l-2.976.5v19h2.976zM63.015 7.808c.896 0 1.668.16 2.316.48.648.32 1.148.834 1.5 1.542.352.708.528 1.642.528 2.802v3.24l.001.217c.006.489.034.85.083 1.085.056.268.16.438.312.51.152.072.372.108.66.108h.384l-.264 2.448h-1.08l-.263-.007a3.546 3.546 0 01-.931-.167 2.705 2.705 0 01-.894-.486 2.513 2.513 0 01-.6-.732c-.392.44-.922.782-1.59 1.026a6.021 6.021 0 01-2.082.366c-.64 0-1.224-.142-1.752-.426a3.182 3.182 0 01-1.26-1.23c-.312-.536-.468-1.184-.468-1.944 0-.68.158-1.262.474-1.746a4.017 4.017 0 011.248-1.212 7.126 7.126 0 011.68-.768c.604-.188 1.2-.326 1.788-.414.588-.088 1.106-.14 1.554-.156-.032-.688-.208-1.188-.528-1.5-.32-.312-.864-.468-1.632-.468a5.57 5.57 0 00-1.566.222 11.08 11.08 0 00-1.722.69l-.264-2.424.432-.2a10.43 10.43 0 011.734-.592 9.29 9.29 0 012.202-.264zm1.368 6.552l-.336.023a7.305 7.305 0 00-1.344.253c-.56.16-1.028.396-1.404.708-.376.312-.564.704-.564 1.176 0 .488.128.85.384 1.086.256.236.664.354 1.224.354.264 0 .592-.07.984-.21.392-.14.744-.358 1.056-.654V14.36zM72.684 20v-8.687l.061-.072a4.15 4.15 0 01.345-.338l.182-.149c.432-.332.988-.498 1.668-.498.84 0 1.446.268 1.818.804.372.536.558 1.364.558 2.484V20h2.976v-6.696c0-1.624-.372-2.946-1.116-3.966-.744-1.02-1.884-1.53-3.42-1.53-.84 0-1.576.156-2.208.468-.316.156-.61.321-.882.495l-.128.085L72.492 8h-2.784v12h2.976z" fill="#FF8C8C"/><path d="M83.566 4.884c1.31-.54 2.7-2.612 1.909-3.371-.528-.506-1.164-.305-1.91.604-.572-1.054-1.151-1.362-1.738-.925-.88.657.122 2.602 1.739 3.692z" fill="#DB5858"/><path fill="#FF8C8C" d="M85.185 20V8H82.21v12zM92.359 7.808c1.152 0 2.112.236 2.88.708a4.495 4.495 0 011.728 1.89c.384.788.576 1.658.576 2.61 0 .264-.016.53-.048.798s-.08.546-.144.834h-7.752l.047.272c.125.62.343 1.132.655 1.534.356.46.792.798 1.308 1.014a4.26 4.26 0 001.662.324c.696 0 1.344-.09 1.944-.27.6-.18 1.152-.418 1.656-.714l.144 2.52-.203.101a8.992 8.992 0 01-1.501.535c-.68.184-1.448.276-2.304.276-1.448 0-2.654-.29-3.618-.87-.964-.58-1.686-1.348-2.166-2.304-.48-.956-.72-2.002-.72-3.138 0-1.096.226-2.108.678-3.036a5.474 5.474 0 011.986-2.238c.872-.564 1.936-.846 3.192-.846zm0 2.448c-.768 0-1.372.224-1.812.672-.44.448-.732 1.016-.876 1.704h4.848c0-.36-.068-.722-.204-1.086a2.071 2.071 0 00-.678-.918c-.316-.248-.742-.372-1.278-.372zM107.017 20v-7.272h4.616V9.752h-4.616V6.176h7.272V3.2h-10.344V20zM117.455 20v-8.184c.168-.336.46-.62.876-.852a2.785 2.785 0 011.38-.348c.168 0 .338.008.51.024s.346.048.522.096l.216-2.928a2.697 2.697 0 00-.528-.048 3.42 3.42 0 00-1.812.504c-.552.336-.98.672-1.284 1.008L117.263 8h-2.784v12h2.976zM126.884 7.76c1.304 0 2.416.286 3.336.858a5.679 5.679 0 012.106 2.286c.484.952.726 1.992.726 3.12 0 1.12-.242 2.152-.726 3.096a5.657 5.657 0 01-2.106 2.268c-.92.568-2.032.852-3.336.852-1.304 0-2.416-.284-3.336-.852a5.657 5.657 0 01-2.106-2.268c-.484-.944-.726-1.976-.726-3.096 0-1.128.242-2.168.726-3.12a5.679 5.679 0 012.106-2.286c.92-.572 2.032-.858 3.336-.858zm0 2.448c-.992 0-1.76.354-2.304 1.062-.544.708-.816 1.626-.816 2.754 0 1.112.272 2.018.816 2.718.544.7 1.312 1.05 2.304 1.05 1 0 1.77-.35 2.31-1.05.54-.7.81-1.606.81-2.718 0-1.128-.27-2.046-.81-2.754-.54-.708-1.31-1.062-2.31-1.062zM139.505 7.808c1.152 0 2.112.236 2.88.708a4.495 4.495 0 011.728 1.89c.384.788.576 1.658.576 2.61 0 .264-.016.53-.048.798s-.08.546-.144.834h-7.752l.048.272c.125.62.343 1.132.654 1.534.356.46.792.798 1.308 1.014a4.26 4.26 0 001.662.324c.696 0 1.344-.09 1.944-.27.6-.18 1.152-.418 1.656-.714l.144 2.52-.202.101a8.992 8.992 0 01-1.502.535c-.68.184-1.448.276-2.304.276-1.448 0-2.654-.29-3.618-.87-.964-.58-1.686-1.348-2.166-2.304-.48-.956-.72-2.002-.72-3.138 0-1.096.226-2.108.678-3.036a5.474 5.474 0 011.986-2.238c.872-.564 1.936-.846 3.192-.846zm0 2.448c-.768 0-1.372.224-1.812.672-.44.448-.732 1.016-.876 1.704h4.848c0-.36-.068-.722-.204-1.086a2.071 2.071 0 00-.678-.918c-.316-.248-.742-.372-1.278-.372zM148.935 20l-.001-8.691.078-.088a4.03 4.03 0 01.354-.333l.187-.146c.444-.324 1.014-.486 1.71-.486.816 0 1.404.268 1.764.804.36.536.54 1.364.54 2.484V20h2.976v-6.672c0-1.088-.156-2.046-.468-2.874-.312-.828-.8-1.476-1.464-1.944-.664-.468-1.524-.702-2.58-.702-.824 0-1.532.148-2.124.444-.296.148-.581.303-.855.465l-.118.072V.5l-2.975.5v19h2.976zM161.436 20v-8.687l.061-.072a4.15 4.15 0 01.345-.338l.182-.149c.432-.332.988-.498 1.668-.498.84 0 1.446.268 1.818.804.372.536.558 1.364.558 2.484V20h2.976v-6.696c0-1.624-.372-2.946-1.116-3.966-.744-1.02-1.884-1.53-3.42-1.53-.84 0-1.576.156-2.208.468-.316.156-.61.321-.882.495l-.128.085-.046-.856h-2.784v12h2.976zM176.097 7.808c1.152 0 2.112.236 2.88.708a4.495 4.495 0 011.728 1.89c.384.788.576 1.658.576 2.61 0 .264-.016.53-.048.798s-.08.546-.144.834h-7.752l.048.272c.125.62.343 1.132.654 1.534.356.46.792.798 1.308 1.014a4.26 4.26 0 001.662.324c.696 0 1.344-.09 1.944-.27.6-.18 1.152-.418 1.656-.714l.144 2.52-.202.101a8.992 8.992 0 01-1.502.535c-.68.184-1.448.276-2.304.276-1.448 0-2.654-.29-3.618-.87-.964-.58-1.686-1.348-2.166-2.304-.48-.956-.72-2.002-.72-3.138 0-1.096.226-2.108.678-3.036a5.474 5.474 0 011.986-2.238c.872-.564 1.936-.846 3.192-.846zm0 2.448c-.768 0-1.372.224-1.812.672-.44.448-.732 1.016-.876 1.704h4.848c0-.36-.068-.722-.204-1.086a2.071 2.071 0 00-.678-.918c-.316-.248-.742-.372-1.278-.372zM185.55 20v-8.184c.169-.336.46-.62.877-.852a2.785 2.785 0 011.38-.348c.168 0 .338.008.51.024s.346.048.522.096l.216-2.928a2.697 2.697 0 00-.528-.048 3.42 3.42 0 00-1.812.504c-.552.336-.98.672-1.284 1.008L185.359 8h-2.784v12h2.976z"/></g></svg>